PathFileType	4	(X/Y/Z)	 0.11m3min.trc
DataRate	CameraRate	NumFrames	NumMarkers	Units	OrigDataRate	OrigDataStartFrame	OrigNumFrames
200	200	8	43	m	200	1	996
Frame#	Time	C7			LSH			RSH			MAN			RASI			LASI			HIPR			HIPL			RPSI			LPSI			COX			RTHI1			RTHI2			RTHI3			RTHI4			RLKN			RMKN			RSHA1			RSHA2			RSHA3			RSHA4			RLMAL			RMMAL			RHEEL			RMET5			RMET1			RTOE			LTHI1			LTHI2			LTHI3			LTHI4			LLKN			LMKN			LSHA1			LSHA2			LSHA3			LSHA4			LLMAL			LMMAL			LHEEL			LMET5			LMET1			LTOE			
		X1	Y1	Z1	X2	Y2	Z2	X3	Y3	Z3	X4	Y4	Z4	X5	Y5	Z5	X6	Y6	Z6	X7	Y7	Z7	X8	Y8	Z8	X9	Y9	Z9	X10	Y10	Z10	X11	Y11	Z11	X12	Y12	Z12	X13	Y13	Z13	X14	Y14	Z14	X15	Y15	Z15	X16	Y16	Z16	X17	Y17	Z17	X18	Y18	Z18	X19	Y19	Z19	X20	Y20	Z20	X21	Y21	Z21	X22	Y22	Z22	X23	Y23	Z23	X24	Y24	Z24	X25	Y25	Z25	X26	Y26	Z26	X27	Y27	Z27	X28	Y28	Z28	X29	Y29	Z29	X30	Y30	Z30	X31	Y31	Z31	X32	Y32	Z32	X33	Y33	Z33	X34	Y34	Z34	X35	Y35	Z35	X36	Y36	Z36	X37	Y37	Z37	X38	Y38	Z38	X39	Y39	Z39	X40	Y40	Z40	X41	Y41	Z41	X42	Y42	Z42	X43	Y43	Z43	
1	0.0050	-0.293490	1.398051	-0.492756	-0.207247	1.357857	-0.698380	-0.211217	1.335114	-0.291033	-0.161071	1.313818	-0.491986	-0.223750	0.873628	-0.367059	-0.200281	0.872939	-0.628888	-0.319813	0.929896	-0.340075	-0.284725	0.921808	-0.669735	-0.409756	0.918998	-0.462271	-0.395225	0.927524	-0.556350	-0.403866	0.924040	-0.510236	-0.282676	0.641787	-0.318749	-0.256351	0.588169	-0.317932	-0.201110	0.613021	-0.294735	-0.220760	0.671137	-0.294241	-0.148187	0.394851	-0.317342	-0.120987	0.387264	-0.425422	-0.226402	0.282643	-0.305218	-0.257959	0.252244	-0.309632	-0.189632	0.253146	-0.327522	-0.212678	0.219658	-0.336582	-0.393168	0.077774	-0.371868	-0.351452	0.074815	-0.451135	-0.441873	0.067686	-0.436283	-0.307286	0.035946	-0.312371	-0.239098	0.041389	-0.376130	-0.217500	0.034607	-0.364940	-0.236764	0.658605	-0.701537	-0.212181	0.601782	-0.703212	-0.150762	0.622728	-0.702964	-0.166717	0.680917	-0.701307	-0.136346	0.411148	-0.686848	-0.126512	0.382779	-0.575462	-0.225734	0.272587	-0.703998	-0.250606	0.241244	-0.699566	-0.206448	0.214636	-0.665081	-0.183852	0.248812	-0.678632	-0.385549	0.086065	-0.670780	-0.362633	0.083785	-0.585735	-0.450699	0.075699	-0.614398	-0.298882	0.028994	-0.711678	-0.237053	0.037574	-0.638500	-0.217640	0.033605	-0.645590	
2	0.0100	-0.293318	1.397054	-0.492866	-0.207146	1.356758	-0.698568	-0.211026	1.333916	-0.291073	-0.160795	1.312609	-0.492135	-0.223672	0.872415	-0.367408	-0.200355	0.873170	-0.628288	-0.319405	0.928779	-0.339993	-0.284359	0.921980	-0.669530	-0.409668	0.917876	-0.461884	-0.395244	0.926534	-0.555994	-0.403832	0.923032	-0.509846	-0.282486	0.640599	-0.318625	-0.256038	0.586979	-0.317740	-0.200953	0.611964	-0.294345	-0.220671	0.670025	-0.294059	-0.147769	0.393367	-0.316741	-0.121120	0.385761	-0.425209	-0.225401	0.281390	-0.305038	-0.257068	0.251052	-0.309423	-0.188741	0.251847	-0.327814	-0.211936	0.218493	-0.336902	-0.393172	0.077414	-0.372219	-0.351425	0.074404	-0.451380	-0.441955	0.067092	-0.436800	-0.307391	0.035979	-0.312407	-0.239183	0.041376	-0.376103	-0.217567	0.034614	-0.364839	-0.237088	0.657894	-0.701576	-0.212501	0.601074	-0.703282	-0.151053	0.622051	-0.703288	-0.167028	0.680245	-0.701632	-0.136221	0.410381	-0.687044	-0.126760	0.381958	-0.575622	-0.225502	0.271735	-0.704235	-0.250508	0.240483	-0.699931	-0.206469	0.213812	-0.665163	-0.183770	0.247878	-0.678663	-0.385725	0.085459	-0.671151	-0.363123	0.083240	-0.586044	-0.451055	0.075016	-0.614903	-0.298916	0.028872	-0.711981	-0.237238	0.037571	-0.638633	-0.217743	0.033455	-0.645682	
3	0.0150	-0.293201	1.396673	-0.492964	-0.207051	1.356272	-0.698743	-0.210846	1.333395	-0.291110	-0.160564	1.312073	-0.492279	-0.223411	0.871785	-0.367867	-0.200312	0.873965	-0.627665	-0.318815	0.928028	-0.339779	-0.283918	0.922280	-0.669279	-0.409405	0.917381	-0.461436	-0.395113	0.926023	-0.555567	-0.403607	0.922571	-0.509368	-0.282562	0.639950	-0.318704	-0.256175	0.586308	-0.317768	-0.201214	0.611213	-0.294031	-0.220870	0.669278	-0.293886	-0.148451	0.392238	-0.316154	-0.121873	0.384897	-0.425052	-0.225205	0.280283	-0.304901	-0.256884	0.249915	-0.309302	-0.188519	0.250820	-0.327936	-0.211720	0.217470	-0.337092	-0.393209	0.077004	-0.372549	-0.351429	0.074012	-0.451584	-0.442035	0.066550	-0.437258	-0.307506	0.036002	-0.312430	-0.239283	0.041371	-0.376068	-0.217647	0.034622	-0.364735	-0.237390	0.657664	-0.701680	-0.212873	0.600817	-0.703442	-0.151376	0.621742	-0.703656	-0.167296	0.679958	-0.701974	-0.136633	0.409848	-0.687423	-0.127646	0.381357	-0.575908	-0.225570	0.270919	-0.704539	-0.250665	0.239721	-0.700324	-0.206681	0.213155	-0.665211	-0.183951	0.247112	-0.678691	-0.385961	0.084838	-0.671439	-0.363556	0.082726	-0.586303	-0.451395	0.074341	-0.615266	-0.298966	0.028764	-0.712262	-0.237420	0.037592	-0.638793	-0.217884	0.033391	-0.645847	
4	0.0200	-0.293146	1.396911	-0.493054	-0.206985	1.356417	-0.698913	-0.210680	1.333551	-0.291153	-0.160381	1.312235	-0.492416	-0.222955	0.871750	-0.368336	-0.200131	0.875213	-0.627129	-0.318098	0.927695	-0.339454	-0.283446	0.922727	-0.669014	-0.408964	0.917540	-0.460964	-0.394823	0.926009	-0.555111	-0.403205	0.922678	-0.508864	-0.282855	0.639859	-0.318973	-0.256687	0.586155	-0.317985	-0.201824	0.610826	-0.293809	-0.221303	0.668961	-0.293709	-0.149963	0.391340	-0.315648	-0.122777	0.384322	-0.424698	-0.225778	0.279418	-0.304774	-0.257384	0.248935	-0.309250	-0.188968	0.250120	-0.327830	-0.212002	0.216696	-0.337087	-0.393267	0.076607	-0.372812	-0.351455	0.073700	-0.451708	-0.442140	0.066168	-0.437645	-0.307616	0.036006	-0.312422	-0.239378	0.041373	-0.376017	-0.217720	0.034631	-0.364636	-0.237671	0.657937	-0.701841	-0.213292	0.601035	-0.703686	-0.151730	0.621832	-0.704064	-0.167524	0.680081	-0.702329	-0.137541	0.409590	-0.687963	-0.128982	0.381031	-0.576340	-0.225945	0.270240	-0.704868	-0.251049	0.239032	-0.700650	-0.207047	0.212722	-0.665237	-0.184357	0.246633	-0.678704	-0.386232	0.084256	-0.671582	-0.363865	0.082281	-0.586431	-0.451670	0.073740	-0.615407	-0.299034	0.028689	-0.712475	-0.237563	0.037621	-0.638941	-0.218040	0.033418	-0.646047	
5	0.0250	-0.293174	1.397755	-0.493137	-0.206970	1.357208	-0.699072	-0.210543	1.334396	-0.291212	-0.160255	1.313109	-0.492546	-0.222309	0.872302	-0.368753	-0.199798	0.876841	-0.626751	-0.317284	0.927895	-0.339061	-0.282965	0.923402	-0.668782	-0.408353	0.918331	-0.460499	-0.394384	0.926541	-0.554668	-0.402628	0.923369	-0.508378	-0.283304	0.640349	-0.319391	-0.257468	0.586555	-0.318309	-0.202676	0.610873	-0.293667	-0.221901	0.669122	-0.293543	-0.152104	0.390657	-0.315130	-0.123514	0.384200	-0.424113	-0.227023	0.278907	-0.304639	-0.258482	0.248240	-0.309235	-0.190001	0.249814	-0.327486	-0.212742	0.216240	-0.336875	-0.393375	0.076293	-0.372956	-0.351506	0.073508	-0.451742	-0.442246	0.065937	-0.437912	-0.307711	0.035988	-0.312378	-0.239456	0.041390	-0.375947	-0.217779	0.034638	-0.364544	-0.237934	0.658732	-0.702052	-0.213751	0.601753	-0.704002	-0.152110	0.622353	-0.704504	-0.167717	0.680645	-0.702696	-0.138880	0.409670	-0.688625	-0.130583	0.381036	-0.576914	-0.226633	0.269820	-0.705186	-0.251664	0.238563	-0.700901	-0.207545	0.212581	-0.665288	-0.184976	0.246514	-0.678826	-0.386508	0.083788	-0.671562	-0.364044	0.081952	-0.586450	-0.451842	0.073279	-0.615304	-0.299119	0.028648	-0.712595	-0.237649	0.037658	-0.639067	-0.218180	0.033517	-0.646251	
6	0.0300	-0.293306	1.399180	-0.493224	-0.207023	1.358662	-0.699216	-0.210443	1.335928	-0.291293	-0.160193	1.314696	-0.492671	-0.221451	0.873449	-0.369086	-0.199306	0.878805	-0.626552	-0.316357	0.928750	-0.338664	-0.282472	0.924405	-0.668622	-0.407572	0.919757	-0.460066	-0.393794	0.927639	-0.554280	-0.401901	0.924611	-0.507963	-0.283834	0.641424	-0.319877	-0.258421	0.587528	-0.318681	-0.203658	0.611425	-0.293587	-0.222574	0.669811	-0.293380	-0.154766	0.390631	-0.314692	-0.124332	0.384438	-0.423417	-0.228812	0.278832	-0.304503	-0.260070	0.247908	-0.309231	-0.191479	0.249941	-0.326938	-0.213843	0.216160	-0.336467	-0.393524	0.076088	-0.372980	-0.351573	0.073469	-0.451686	-0.442341	0.065845	-0.438055	-0.307792	0.035949	-0.312300	-0.239512	0.041423	-0.375858	-0.217818	0.034645	-0.364459	-0.238182	0.660058	-0.702300	-0.214247	0.602982	-0.704372	-0.152513	0.623323	-0.704965	-0.167879	0.681667	-0.703070	-0.140588	0.410124	-0.689357	-0.132279	0.381427	-0.577600	-0.227616	0.269799	-0.705487	-0.252502	0.238450	-0.701100	-0.208152	0.212815	-0.665434	-0.185791	0.246836	-0.679098	-0.386760	0.083506	-0.671404	-0.364062	0.081794	-0.586363	-0.451894	0.073021	-0.614969	-0.299225	0.028629	-0.712616	-0.237676	0.037689	-0.639168	-0.218285	0.033639	-0.646436	
7	0.0350	-0.293554	1.401167	-0.493318	-0.207168	1.360787	-0.699349	-0.210397	1.338143	-0.291399	-0.160197	1.316980	-0.492794	-0.220388	0.875201	-0.369338	-0.198665	0.881072	-0.626544	-0.315273	0.930370	-0.338331	-0.281943	0.925827	-0.668563	-0.406631	0.921782	-0.459675	-0.393049	0.929333	-0.553978	-0.401027	0.926389	-0.507627	-0.284363	0.643078	-0.320380	-0.259434	0.589082	-0.319019	-0.204644	0.612520	-0.293512	-0.223240	0.671076	-0.293224	-0.157707	0.391162	-0.314225	-0.125319	0.385150	-0.422760	-0.230956	0.279234	-0.304366	-0.261987	0.248042	-0.309251	-0.193297	0.250527	-0.326253	-0.215230	0.216531	-0.335897	-0.393725	0.076019	-0.372883	-0.351641	0.073596	-0.451555	-0.442413	0.065884	-0.438096	-0.307857	0.035887	-0.312195	-0.239543	0.041468	-0.375748	-0.217836	0.034651	-0.364381	-0.238417	0.661916	-0.702573	-0.214775	0.604730	-0.704774	-0.152936	0.624760	-0.705433	-0.168015	0.683164	-0.703444	-0.142591	0.411018	-0.690113	-0.133965	0.382291	-0.578363	-0.228869	0.270296	-0.705770	-0.253555	0.238825	-0.701266	-0.208856	0.213487	-0.665744	-0.186772	0.247685	-0.679557	-0.386962	0.083464	-0.671155	-0.363910	0.081879	-0.586229	-0.451817	0.073013	-0.614485	-0.299339	0.028627	-0.712555	-0.237642	0.037703	-0.639242	-0.218331	0.033747	-0.646590	
8	0.0400	-0.293926	1.403695	-0.493432	-0.207422	1.363586	-0.699474	-0.210437	1.341043	-0.291532	-0.160270	1.319931	-0.492919	-0.219150	0.877547	-0.369536	-0.197871	0.883632	-0.626695	-0.313998	0.932792	-0.338097	-0.281356	0.927742	-0.668596	-0.405537	0.924361	-0.459325	-0.392149	0.931612	-0.553758	-0.400028	0.928717	-0.507392	-0.284873	0.645308	-0.320763	-0.260426	0.591181	-0.319246	-0.205557	0.614187	-0.293445	-0.223799	0.672894	-0.293093	-0.160512	0.392840	-0.314078	-0.126796	0.386364	-0.422271	-0.233303	0.280135	-0.304244	-0.264103	0.248672	-0.309283	-0.195341	0.251609	-0.325494	-0.216810	0.217381	-0.335243	-0.393948	0.076058	-0.372715	-0.351705	0.073881	-0.451371	-0.442461	0.066057	-0.438084	-0.307913	0.035799	-0.312070	-0.239554	0.041514	-0.375622	-0.217833	0.034657	-0.364308	-0.238643	0.664301	-0.702855	-0.215332	0.606994	-0.705188	-0.153377	0.626668	-0.705891	-0.168132	0.685141	-0.703808	-0.144820	0.412405	-0.690854	-0.135592	0.383684	-0.579160	-0.230365	0.271372	-0.706037	-0.254810	0.239755	-0.701418	-0.209654	0.214640	-0.666248	-0.187905	0.249080	-0.680213	-0.387102	0.083693	-0.670886	-0.363636	0.082245	-0.586099	-0.451622	0.073286	-0.613944	-0.299450	0.028635	-0.712433	-0.237552	0.037704	-0.639290	-0.218306	0.033813	-0.646702	
